The ENTIRE F1 Indian Grand Prix from Practice,Qualifying,Race and Forum.

BBC Content.




Format                                   : MPEG-4
Format profile                           : Base Media
Codec ID                                 : isom
File size                                : 1.17 GiB
Duration                                 : 3h 29mn
Overall bit rate                         : 799 Kbps
Movie name                               : 2011: The Indian Grand Prix
Album                                    : Formula 1
Album/Performer                          : BBC TV
Grouping                                 : Sport,Motorsport,Formula One
Performer                                : BBC One
Composer                                 : BBC iPlayer
Genre                                    : Sport
Recorded date                            : UTC 2011-10-30 08:30:00
Tagged date                              : UTC 2011-11-02 20:06:17
Writing application                      : Lavf53.4.0
Copyright                                : © 2011 British Broadcasting Corporation, all rights reserved
Cover                                    : Yes
Comment                                  : Jake Humphrey is joined by Eddie Jordan for the inaugural Indian Grand Prix.
stik                                     : 10
©lyr                                     : Presenter Jake Humphrey is joined by David Coulthard, Eddie Jordan and Martin Brundle for the inaugural Indian Grand Prix. The Buddh International Circuit, near New Delhi, finally hosts a Grand Prix after more than a decade of planning to bring Formula 1 to the subcontinent. The race could be a victory parade for Sebastian Vettel, who has been dominant in his pursuit of becoming the youngest double world champion in Formula 1 history. Team-mate Mark Webber will be out to curtail Vettel's celebrations, along with former world champions Lewis Hamilton, Jenson Button and Fernando Alonso. /  / EPISODE /   http://www.bbc.co.uk/iplayer/episode/b016q007/Formula_1_2011_The_Indian_Grand_Prix/ /  / SERIES /   http://www.bbc.co.uk/programmes/b016q007.html
desc                                     : Jake Humphrey is joined by Eddie Jordan for the inaugural Indian Grand Prix.
tvsh                                     : Formula 1
tven                                     : b016q007
tvnn                                     : BBC One

Video
ID                                       : 1
Format                                   : AVC
Format/Info                              : Advanced Video Codec
Format profile                           : Main@L3.0
Format settings, CABAC                   : Yes
Format settings, ReFrames                : 4 frames
Codec ID                                 : avc1
Codec ID/Info                            : Advanced Video Coding
Duration                                 : 3h 29mn
Bit rate mode                            : Constant
Bit rate                                 : 700 Kbps
Width                                    : 640 pixels
Height                                   : 360 pixels
Display aspect ratio                     : 16:9
Frame rate mode                          : Constant
Frame rate                               : 25.000 fps
Standard                                 : PAL
Color space                              : YUV
Chroma subsampling                       : 4:2:0
Bit depth                                : 8 bits
Scan type                                : Progressive
Bits/(Pixel*Frame)                       : 0.122
Stream size                              : 1.02 GiB (87%)

Audio
ID                                       : 2
Format                                   : AAC
Format/Info                              : Advanced Audio Codec
Format profile                           : HE-AAC / LC
Codec ID                                 : 40
Duration                                 : 3h 29mn
Bit rate mode                            : Constant
Bit rate                                 : 96.0 Kbps
Channel(s)                               : 2 channels
Channel positions                        : Front: L R
Sampling rate                            : 48.0 KHz / 24.0 KHz
Compression mode                         : Lossy
Stream size                              : 142 MiB (12%)

